<?xml version="1.0" encoding="utf-8"?>
<!-- Generator: Adobe Illustrator 25.2.1, SVG Export Plug-In . SVG Version: 6.00 Build 0)  -->
<svg version="1.1" id="图层_1" xmlns="http://www.w3.org/2000/svg" xmlns:xlink="http://www.w3.org/1999/xlink" x="0px" y="0px"
	 viewBox="0 0 250 250" style="enable-background:new 0 0 250 250;" xml:space="preserve">
<g transform="translate(0.000000,67.000000) scale(0.100000,-0.100000)">
	<path d="M809.09,585.02C300,398.83,0-34.16,0-579.73c0-554.23,304.55-982.89,822.73-1169.08c313.64-108.25,540.91-108.25,854.55,0
		C2195.45-1562.63,2500-1133.96,2500-579.73s-304.55,982.89-822.73,1169.08C1368.18,697.6,1113.64,697.6,809.09,585.02z
		 M1604.55,364.19C2286.36,165.01,2490.91-839.53,1950-1324.48c-509.09-454.64-1336.36-294.44-1622.73,311.75
		C100-536.43,304.55,87.08,759.09,312.23C1036.36,450.79,1263.64,463.78,1604.55,364.19z"/>
	<path d="M1250-146.74v-432.99H813.64H372.73L400-757.26c54.55-398.35,413.64-684.13,863.64-688.46
		c572.73,0,950,497.94,831.82,1104.13c-40.91,212.17-350,528.25-568.18,584.54C1245.45,316.56,1250,325.22,1250-146.74z"/>
</g>
</svg>
