<?xml version="1.0" encoding="utf-8"?>
<!-- Generator: Adobe Illustrator 25.2.1, SVG Export Plug-In . SVG Version: 6.00 Build 0)  -->
<svg version="1.1" id="图层_1" xmlns="http://www.w3.org/2000/svg" xmlns:xlink="http://www.w3.org/1999/xlink" x="0px" y="0px"
	 viewBox="0 0 250 135" style="enable-background:new 0 0 250 135;" xml:space="preserve">
<style type="text/css">
	.st0{fill:#3C3D3D;}
</style>
<g>
	<rect x="0.5" y="0.5" class="st0" width="64" height="135"/>
	<path class="st0" d="M64,1v134H1V1H64 M65,0H0v136h65V0L65,0z"/>
</g>
<g>
	<rect x="185.5" y="0.5" class="st0" width="64" height="134"/>
	<path class="st0" d="M249,1v133h-63V1H249 M250,0h-65v135h65V0L250,0z"/>
</g>
<g>
	<g>
		<path class="st0" d="M97.85,114.18v-4.15c18.07-1.04,19.05-1.78,19.05-12.88V40.28c0-7.55-1.14-7.85-8.3-8.44l-7.98-0.74v-3.7
			c10.75-1.63,21.49-4,29.8-7.26v77.01c0,11.25,0.98,11.85,19.21,12.88v4.15H97.85z"/>
	</g>
</g>
</svg>
