<?xml version="1.0" encoding="utf-8"?>
<!-- Generator: Adobe Illustrator 25.2.1, SVG Export Plug-In . SVG Version: 6.00 Build 0)  -->
<svg version="1.1" id="图层_1" xmlns="http://www.w3.org/2000/svg" xmlns:xlink="http://www.w3.org/1999/xlink" x="0px" y="0px"
	 viewBox="0 0 250 135" style="enable-background:new 0 0 250 135;" xml:space="preserve">
<style type="text/css">
	.st0{fill:#3C3D3D;}
</style>
<g>
	<rect x="0.5" y="0.5" class="st0" width="64" height="135"/>
	<path class="st0" d="M64,1v134H1V1H64 M65,0H0v136h65V0L65,0z"/>
</g>
<g>
	<rect x="185.5" y="0.5" class="st0" width="64" height="134"/>
	<path class="st0" d="M249,1v133h-63V1H249 M250,0h-65v135h65V0L250,0z"/>
</g>
<g>
	<g>
		<path class="st0" d="M91.98,37.91l7.65-9.33c4.72-4.74,12.21-8.44,21-8.44c14.82,0,24.59,8.44,24.59,19.7
			c0,4.44-2.12,8-5.05,10.96c-2.61,2.52-6.84,5.18-11.56,8c15.14,2.96,24.1,12,24.1,22.81c0,24.14-31.26,34.36-42.82,34.36
			c-7.65,0-14.65-2.96-16.93-5.18c-1.95-1.93-2.44-3.26-2.44-4.89c0.16-2.37,2.28-4.59,3.74-5.63c1.3-0.89,2.77-1.04,4.23,0.15
			c4.4,3.55,10.91,7.85,20.19,7.85c11.72,0,20.03-8,20.03-22.36c-0.16-13.63-11.07-18.96-21.49-18.96c-3.74,0-8.3,0.89-10.91,1.63
			l-1.14-4.44c14.49-4.29,26.21-10.22,26.21-21.18c0-8.74-6.19-13.77-15.63-13.77c-9.12,0-16.12,6.07-20.35,11.7L91.98,37.91z"/>
	</g>
</g>
</svg>
