<?xml version="1.0" encoding="utf-8"?>
<!-- Generator: Adobe Illustrator 25.2.1, SVG Export Plug-In . SVG Version: 6.00 Build 0)  -->
<svg version="1.1" id="图层_1" xmlns="http://www.w3.org/2000/svg" xmlns:xlink="http://www.w3.org/1999/xlink" x="0px" y="0px"
	 viewBox="0 0 250 135" style="enable-background:new 0 0 250 135;" xml:space="preserve">
<style type="text/css">
	.st0{fill:#3C3D3D;}
</style>
<g>
	<rect x="0.5" y="0.5" class="st0" width="64" height="135"/>
	<path class="st0" d="M64,1v134H1V1H64 M65,0H0v136h65V0L65,0z"/>
</g>
<g>
	<rect x="185.5" y="0.5" class="st0" width="64" height="134"/>
	<path class="st0" d="M249,1v133h-63V1H249 M250,0h-65v135h65V0L250,0z"/>
</g>
<g>
	<g>
		<path class="st0" d="M149.62,21.91l0.98,1.19l-4.23,9.77h-37.45c-1.47,8.15-3.58,19.7-5.05,26.95c6.19-2.07,15.14-4.29,19.21-4.29
			c20.03,0,30.61,12.88,30.61,25.18c0,8.89-4.07,17.48-14,24.88c-8.96,6.52-20.19,10.37-28.82,10.37c-7.65,0-13.68-2.81-16.93-5.78
			c-2.28-1.92-2.93-3.11-2.6-5.04c0-1.33,1.3-3.55,3.42-5.04c1.47-0.89,2.93-1.19,4.56,0c4.72,3.85,10.42,8.15,20.52,8.15
			c13.68,0,20.19-10.66,20.19-21.77c0-13.03-8.63-22.36-26.7-22.36c-6.68,0-12.05,1.33-16.28,2.67l-0.49-0.59
			c2.44-11.55,6.02-32.43,7.82-44.28H149.62z"/>
	</g>
</g>
</svg>
