<?xml version="1.0" encoding="utf-8"?>
<!-- Generator: Adobe Illustrator 25.2.1, SVG Export Plug-In . SVG Version: 6.00 Build 0)  -->
<svg version="1.1" id="图层_1" xmlns="http://www.w3.org/2000/svg" xmlns:xlink="http://www.w3.org/1999/xlink" x="0px" y="0px"
	 viewBox="0 0 250 135" style="enable-background:new 0 0 250 135;" xml:space="preserve">
<style type="text/css">
	.st0{fill:#3C3D3D;}
</style>
<g>
	<rect x="0.5" y="0.5" class="st0" width="64" height="135"/>
	<path class="st0" d="M64,1v134H1V1H64 M65,0H0v136h65V0L65,0z"/>
</g>
<g>
	<rect x="185.5" y="0.5" class="st0" width="64" height="134"/>
	<path class="st0" d="M249,1v133h-63V1H249 M250,0h-65v135h65V0L250,0z"/>
</g>
<g>
	<g>
		<path class="st0" d="M116.9,58.35c3.42-1.63,7.16-2.52,10.42-2.52c17.26,0,29.15,12.29,29.15,27.4c0,17.77-14,32.73-33.54,32.73
			c-19.21,0-33.87-14.37-33.87-37.03c0-30.51,25.56-49.76,45.1-55.83c3.58-1.19,11.72-2.81,18.4-3.85l0.98,4.89
			c-5.21,1.04-12.86,2.96-17.75,5.04c-9.93,4.15-25.4,13.92-29.8,34.21L116.9,58.35z M120.81,64.27c-6.51,0-12.05,2.22-15.79,4.15
			c-0.65,2.67-0.98,6.37-0.98,10.07c0,18.51,7.65,32.14,21.49,32.14c12.7,0,16.61-12.14,16.61-22.07
			C142.14,76.27,135.62,64.27,120.81,64.27z"/>
	</g>
</g>
</svg>
