<?xml version="1.0" encoding="utf-8"?>
<!-- Generator: Adobe Illustrator 25.2.1, SVG Export Plug-In . SVG Version: 6.00 Build 0)  -->
<svg version="1.1" id="图层_1" xmlns="http://www.w3.org/2000/svg" xmlns:xlink="http://www.w3.org/1999/xlink" x="0px" y="0px"
	 viewBox="0 0 250 135" style="enable-background:new 0 0 250 135;" xml:space="preserve">
<style type="text/css">
	.st0{fill:#3C3D3D;}
</style>
<g>
	<rect x="0.5" y="0.5" class="st0" width="64" height="135"/>
	<path class="st0" d="M64,1v134H1V1H64 M65,0H0v136h65V0L65,0z"/>
</g>
<g>
	<rect x="185.5" y="0.5" class="st0" width="64" height="134"/>
	<path class="st0" d="M249,1v133h-63V1H249 M250,0h-65v135h65V0L250,0z"/>
</g>
<g>
	<g>
		<path class="st0" d="M157.93,23.84c-15.63,30.06-30.77,59.98-46.57,90.64l-11.72,1.04l-1.14-1.63
			c16.93-25.03,34.84-55.69,47.71-81.01h-34.84c-10.58,0-11.24,1.33-15.63,11.11h-5.05c1.63-8.29,2.28-15.7,3.09-22.07h63.18
			L157.93,23.84z"/>
	</g>
</g>
</svg>
