<?xml version="1.0" encoding="utf-8"?>
<!-- Generator: Adobe Illustrator 25.2.1, SVG Export Plug-In . SVG Version: 6.00 Build 0)  -->
<svg version="1.1" id="图层_1" xmlns="http://www.w3.org/2000/svg" xmlns:xlink="http://www.w3.org/1999/xlink" x="0px" y="0px"
	 viewBox="0 0 250 135" style="enable-background:new 0 0 250 135;" xml:space="preserve">
<style type="text/css">
	.st0{fill:#3C3D3D;}
</style>
<g>
	<rect x="0.5" y="0.5" class="st0" width="64" height="135"/>
	<path class="st0" d="M64,1v134H1V1H64 M65,0H0v136h65V0L65,0z"/>
</g>
<g>
	<rect x="185.5" y="0.5" class="st0" width="64" height="134"/>
	<path class="st0" d="M249,1v133h-63V1H249 M250,0h-65v135h65V0L250,0z"/>
</g>
<g>
	<g>
		<path class="st0" d="M123.9,20.14c15.63,0,26.54,9.92,26.54,21.92c0,4.44-1.47,8.74-4.56,12c-1.46,1.48-6.35,4.74-13.51,9.48
			c11.23,5.63,22.31,12.74,22.31,25.62c0,17.33-17.26,26.81-32.73,26.81c-18.07,0-31.43-9.48-31.43-24.44
			c0-7.55,3.58-11.7,7.49-14.66c2.61-2.07,8.96-5.92,14.65-9.18c-10.58-5.63-18.07-12.74-18.07-23.25
			C94.59,31.54,106.15,20.14,123.9,20.14z M123.9,110.92c10.91,0,17.59-6.52,17.59-17.33c0-11.85-10.91-17.62-24.1-23.4
			c-8.79,4.59-13.68,11.55-13.68,20.29C103.71,104.11,113.15,110.92,123.9,110.92z M121.78,25.02c-9.77,0-14.82,6.96-14.82,15.25
			c0,10.81,7.98,14.81,20.68,20.88c6.35-4.44,10.75-9.63,10.75-18.36C138.39,30.35,130.25,25.02,121.78,25.02z"/>
	</g>
</g>
</svg>
