<?xml version="1.0" encoding="utf-8"?>
<!-- Generator: Adobe Illustrator 25.2.1, SVG Export Plug-In . SVG Version: 6.00 Build 0)  -->
<svg version="1.1" id="图层_1" xmlns="http://www.w3.org/2000/svg" xmlns:xlink="http://www.w3.org/1999/xlink" x="0px" y="0px"
	 viewBox="0 0 250 250" style="enable-background:new 0 0 250 250;" xml:space="preserve">
<g transform="translate(0.000000,53.000000) scale(0.100000,-0.100000)">
	<path d="M597.14,297.74C314.05,131.91,106.9-292.6,100-703.85c0-378.08,269.29-915.36,545.48-1074.56
		c359.05-198.99,800.95-126.03,1056.43,172.46l110.48,145.93l48.33-185.73c41.43-152.56,82.86-179.09,290-179.09
		c220.95,0,241.67,13.27,200.24,152.56c-186.43,596.98-207.14,961.79-69.05,1499.07L2420,364.07h-255.48
		c-214.05,0-262.38-26.53-296.9-172.46l-48.33-165.83l-241.67,198.99C1287.62,470.2,942.38,496.73,597.14,297.74z M1474.05-206.37
		c317.62-384.72,110.48-1220.48-296.9-1220.48c-255.48,0-407.38,225.52-441.9,650.04c-20.71,311.75,0,411.25,124.29,563.81
		C1045.95,19.15,1287.62,19.15,1474.05-206.37z"/>
</g>
</svg>
