<?xml version="1.0" encoding="utf-8"?>
<!-- Generator: Adobe Illustrator 25.2.1, SVG Export Plug-In . SVG Version: 6.00 Build 0)  -->
<svg version="1.1" id="图层_1" xmlns="http://www.w3.org/2000/svg" xmlns:xlink="http://www.w3.org/1999/xlink" x="0px" y="0px"
	 viewBox="0 0 250 250" style="enable-background:new 0 0 250 250;" xml:space="preserve">
<g transform="translate(0.000000,61.000000) scale(0.100000,-0.100000)">
	<path d="M80-193.53c0-638.39,4.5-679.39,90-679.39c81,0,90,41,90,409.97c0,228.41,18,409.97,36,409.97s67.5-175.7,103.5-392.4
		c58.5-351.41,81-398.26,180-415.83c103.5-17.57,117,11.71,207,439.26L881,34.88l4.5-661.82l4.5-661.82l396,17.57
		c310.5,11.71,391.5,35.14,391.5,105.42c0,64.42-67.5,93.71-279,105.42c-279,17.57-283.5,17.57-283.5,187.42v175.7h405h405v-556.39
		c0-515.4,4.5-556.39,90-556.39s90,41,90,556.39v556.39h157.5c126,0,157.5,23.43,157.5,117.14c0,111.28-31.5,117.14-652.5,117.14
		H1115v146.42c0,140.56,13.5,146.42,270,146.42c238.5,0,270,11.71,270,117.14c0,93.71-36,111.28-279,128.85
		c-283.5,17.57-283.5,17.57-297,210.84c-13.5,169.85-27,187.42-166.5,187.42c-144,0-153-11.71-198-275.27
		C611-451.23,584-462.94,471.5,122.74c-58.5,310.41-63,322.12-225,339.69L80,480V-193.53z"/>
</g>
</svg>
