<?xml version="1.0" encoding="utf-8"?>
<!-- Generator: Adobe Illustrator 25.2.1, SVG Export Plug-In . SVG Version: 6.00 Build 0)  -->
<svg version="1.1" id="图层_1" xmlns="http://www.w3.org/2000/svg" xmlns:xlink="http://www.w3.org/1999/xlink" x="0px" y="0px"
	 viewBox="0 0 250 250" style="enable-background:new 0 0 250 250;" xml:space="preserve">
<g transform="translate(0.000000,91.000000) scale(0.100000,-0.100000)">
	<path d="M918.36,868.49C271.77,689.54-126.13,6.89,36.34-639.31c212.22-841.72,1197.03-1222.81,1909.94-735.67
		c716.23,487.13,742.75,1511.11,49.74,2034.7C1697.59,885.05,1276.48,967.9,918.36,868.49z M1704.22,566.93
		c351.48-169.01,550.43-497.08,550.43-907.99c0-414.23-198.95-735.67-563.7-917.93c-261.95-125.93-620.07-125.93-882.02,0
		c-212.22,106.04-401.22,298.25-497.38,516.96c-92.84,208.77-92.84,589.86,0,801.95C550.3,596.75,1170.37,822.09,1704.22,566.93z"/>
	<path d="M1117.31,424.43c-16.58-36.45-33.16-185.58-33.16-331.38v-268.42h-291.8c-318.32,0-371.38-23.2-371.38-172.32
		c0-125.93,79.58-159.06,394.59-159.06h268.58v-268.42c0-318.13,33.16-394.35,165.79-394.35s165.79,76.22,165.79,394.35v268.42
		h268.58c315.01,0,394.59,33.14,394.59,159.06c0,149.12-53.05,172.32-371.38,172.32h-291.8V93.05
		c0,318.13-33.16,394.35-165.79,394.35C1186.95,487.39,1140.53,464.2,1117.31,424.43z"/>
</g>
</svg>
