<?xml version="1.0" encoding="utf-8"?>
<!-- Generator: Adobe Illustrator 25.2.1, SVG Export Plug-In . SVG Version: 6.00 Build 0)  -->
<svg version="1.1" id="图层_1" xmlns="http://www.w3.org/2000/svg" xmlns:xlink="http://www.w3.org/1999/xlink" x="0px" y="0px"
	 viewBox="0 0 250 250" style="enable-background:new 0 0 250 250;" xml:space="preserve">
<style type="text/css">
	.st0{fill:#545454;}
</style>
<path d="M125.16,1.04c33.12,0,64.26,12.9,87.68,36.32s36.32,54.56,36.32,87.68s-12.9,64.26-36.32,87.68s-54.56,36.32-87.68,36.32
	s-64.26-12.9-87.68-36.32S1.16,158.16,1.16,125.04s12.9-64.26,36.32-87.68S92.04,1.04,125.16,1.04 M125.16,0.04
	c-69.04,0-125,55.96-125,125s55.96,125,125,125s125-55.96,125-125S194.2,0.04,125.16,0.04L125.16,0.04z"/>
<path class="st0" d="M125.16,0.54c-68.76,0-124.5,55.74-124.5,124.5s55.74,124.5,124.5,124.5s124.5-55.74,124.5-124.5
	S193.92,0.54,125.16,0.54z M163.14,182.33c-5.21,1.16-19.22,4.63-32.87,4.63c-42.93,0-64.85-30.65-64.85-64.38
	c0-39.32,27.84-66.5,68.08-66.5c15.45,0,28.02,3.47,33.95,4.43c0.72,8.67,1.98,20.24,3.41,29.88l-5.57,1.35
	c-3.59-12.92-7.9-20.82-17.06-24.87c-4.67-2.31-12.03-3.66-18.86-3.66c-29.64,0-45.27,23.52-45.27,55.32
	c0,37.2,17.96,61.11,47.06,61.11c18.32,0,27.3-9.06,36.46-28.34l5.4,1.92C170.51,162.47,165.83,176.35,163.14,182.33z"/>
</svg>
