<?xml version="1.0" encoding="utf-8"?>
<!-- Generator: Adobe Illustrator 25.2.1, SVG Export Plug-In . SVG Version: 6.00 Build 0)  -->
<svg version="1.1" id="图层_1" xmlns="http://www.w3.org/2000/svg" xmlns:xlink="http://www.w3.org/1999/xlink" x="0px" y="0px"
	 viewBox="0 0 250 250" style="enable-background:new 0 0 250 250;" xml:space="preserve">
<style type="text/css">
	.st0{fill:#545454;}
</style>
<path d="M125,1c33.12,0,64.26,12.9,87.68,36.32S249,91.88,249,125s-12.9,64.26-36.32,87.68S158.12,249,125,249
	s-64.26-12.9-87.68-36.32S1,158.12,1,125s12.9-64.26,36.32-87.68S91.88,1,125,1 M125,0C55.96,0,0,55.96,0,125s55.96,125,125,125
	s125-55.96,125-125S194.04,0,125,0L125,0z"/>
<path class="st0" d="M125,0.5C56.24,0.5,0.5,56.24,0.5,125S56.24,249.5,125,249.5S249.5,193.76,249.5,125S193.76,0.5,125,0.5z
	 M190.1,178.63v5.4h-48.14v-5.4c14.91-1.93,16.35-2.31,16.35-18.5v-38.55H96.88v38.55c0,16,1.44,16.58,16.17,18.5v5.4H65.08v-5.4
	c14.55-1.73,16.17-2.31,16.17-18.5v-77.3c0-16.19-1.62-17.16-16.17-18.7v-5.4h47.96v5.4c-14.37,1.35-16.17,2.7-16.17,18.7v30.65
	h61.43V82.83c0-16-1.98-17.35-16.35-18.7v-5.4h48.14v5.4h0.01c-14.91,1.54-16.35,2.51-16.35,18.7v77.3
	C173.75,176.32,175.37,176.9,190.1,178.63z"/>
</svg>
