<?xml version="1.0" encoding="utf-8"?>
<!-- Generator: Adobe Illustrator 25.2.1, SVG Export Plug-In . SVG Version: 6.00 Build 0)  -->
<svg version="1.1" id="图层_1" xmlns="http://www.w3.org/2000/svg" xmlns:xlink="http://www.w3.org/1999/xlink" x="0px" y="0px"
	 viewBox="0 0 250 250" style="enable-background:new 0 0 250 250;" xml:space="preserve">
<g transform="translate(0.000000,66.000000) scale(0.100000,-0.100000)">
	<path d="M808.46,571.47C355.92,395.73,4.43-109.54,4.43-588.44c0-294.37,153.78-650.25,377.85-874.33
		c492.08-492.08,1256.57-492.08,1748.65,0s492.08,1256.57,0,1748.65C1779.45,641.77,1269.79,747.21,808.46,571.47z M1674,325.43
		c610.71-246.04,777.67-1115.97,316.34-1612.45c-272.4-289.98-773.27-382.24-1151.12-215.29
		c-364.67,166.96-584.35,505.26-584.35,913.87C254.87,154.08,966.63,615.41,1674,325.43z"/>
	<path d="M1234.64-135.9c0-404.21,0-413,210.89-777.67c114.23-206.5,228.47-377.85,254.83-386.64
		c65.9-21.97,281.19,202.11,351.49,369.06c92.27,210.89,74.69,527.23-30.76,751.31c-114.23,232.86-421.79,448.15-641.47,448.15
		h-144.99V-135.9z"/>
</g>
</svg>
