<?xml version="1.0" encoding="utf-8"?>
<!-- Generator: Adobe Illustrator 25.2.1, SVG Export Plug-In . SVG Version: 6.00 Build 0)  -->
<svg version="1.1" id="图层_1" xmlns="http://www.w3.org/2000/svg" xmlns:xlink="http://www.w3.org/1999/xlink" x="0px" y="0px"
	 viewBox="0 0 250 135" style="enable-background:new 0 0 250 135;" xml:space="preserve">
<style type="text/css">
	.st0{fill:#3C3D3D;}
</style>
<g>
	<rect x="0.5" y="0.5" class="st0" width="64" height="135"/>
	<path class="st0" d="M64,1v134H1V1H64 M65,0H0v136h65V0L65,0z"/>
</g>
<g>
	<rect x="185.5" y="0.5" class="st0" width="64" height="134"/>
	<path class="st0" d="M249,1v133h-63V1H249 M250,0h-65v135h65V0L250,0z"/>
</g>
<g>
	<g>
		<path class="st0" d="M156.3,94.48c-2.12,6.66-4.88,14.22-6.51,19.7H88.4v-3.55c8.96-8,18.73-16.74,26.7-25.18
			c10.26-10.96,20.03-22.81,20.03-35.69c0-12.29-7.16-19.4-19.05-19.4c-11.23,0-18.24,8-22.47,13.77l-3.74-3.11l9.28-12
			c5.05-5.18,12.86-8.89,22.31-8.89c15.47,0,27.68,9.63,27.68,25.62c0,12.59-5.05,21.47-20.52,35.84c-7,6.66-17.26,15.7-24.26,21.77
			c0.98,0,29.63,0,31.1,0c8.79,0,11.24-0.74,16.77-10.07L156.3,94.48z"/>
	</g>
</g>
</svg>
