<?xml version="1.0" encoding="utf-8"?>
<!-- Generator: Adobe Illustrator 25.2.1, SVG Export Plug-In . SVG Version: 6.00 Build 0)  -->
<svg version="1.1" id="图层_1" xmlns="http://www.w3.org/2000/svg" xmlns:xlink="http://www.w3.org/1999/xlink" x="0px" y="0px"
	 viewBox="0 0 250 135" style="enable-background:new 0 0 250 135;" xml:space="preserve">
<style type="text/css">
	.st0{fill:#3C3D3D;}
</style>
<g>
	<rect x="0.5" y="0.5" class="st0" width="64" height="135"/>
	<path class="st0" d="M64,1v134H1V1H64 M65,0H0v136h65V0L65,0z"/>
</g>
<g>
	<rect x="185.5" y="0.5" class="st0" width="64" height="134"/>
	<path class="st0" d="M249,1v133h-63V1H249 M250,0h-65v135h65V0L250,0z"/>
</g>
<g>
	<g>
		<path class="st0" d="M142.3,87.23v11.25c0,9.78,0.65,10.52,12.21,11.55v4.15h-38.1v-4.15c12.21-1.04,13.03-1.93,13.03-11.7V87.23
			H86.45v-4.44c15.47-19.99,32.24-41.62,48.52-62.2h7.33v59.54h15.96v7.11H142.3z M129.43,36.13
			c-10.26,13.63-21.66,28.73-32.89,43.99h32.89V36.13z"/>
	</g>
</g>
</svg>
