<?xml version="1.0" encoding="utf-8"?>
<!-- Generator: Adobe Illustrator 25.2.1, SVG Export Plug-In . SVG Version: 6.00 Build 0)  -->
<svg version="1.1" id="图层_1" xmlns="http://www.w3.org/2000/svg" xmlns:xlink="http://www.w3.org/1999/xlink" x="0px" y="0px"
	 viewBox="0 0 250 250" style="enable-background:new 0 0 250 250;" xml:space="preserve">
<g transform="translate(0.000000,59.000000) scale(0.100000,-0.100000)">
	<path d="M679.49-285.72c-168.05-423.03-365.08-932.97-440.41-1130L100-1780.8h1130h1130l-75.33,191.23
		c-46.36,98.51-243.38,608.46-446.21,1130L1467.59,479.2h-243.38H975.03L679.49-285.72z M1484.97-784.08l226-591.08h-492.56
		c-446.21,0-486.77,11.59-452,104.31c23.18,52.15,104.31,283.95,185.44,504.15c226,625.85,260.77,701.18,283.95,637.44
		C1247.38-164.03,1363.28-453.77,1484.97-784.08z"/>
</g>
</svg>
