<?xml version="1.0" encoding="utf-8"?>
<!-- Generator: Adobe Illustrator 25.2.1, SVG Export Plug-In . SVG Version: 6.00 Build 0)  -->
<svg version="1.1" id="图层_1" xmlns="http://www.w3.org/2000/svg" xmlns:xlink="http://www.w3.org/1999/xlink" x="0px" y="0px"
	 viewBox="0 0 250 125" style="enable-background:new 0 0 250 125;" xml:space="preserve">
<g transform="translate(0.000000,47.000000) scale(0.100000,-0.100000)">
	<path d="M239.5,320.97c-13.72-30.88-17.15-61.75-10.29-68.61c44.6-44.6,528.34-250.44,552.35-236.72
		c72.05,44.6,10.29,123.51-168.11,216.14C328.7,372.44,263.52,389.59,239.5,320.97z"/>
	<path d="M1948.02,252.36C1721.59,146.01,1649.54,67.1,1731.88,15.64c48.03-30.88,535.2,229.86,535.2,284.75
		C2267.08,386.16,2205.32,375.87,1948.02,252.36z"/>
	<path d="M946.24-159.33v-463.15h308.77c305.34,0,308.77,0,308.77,85.77c0,82.34-6.86,85.77-223,85.77h-223v377.38v377.38h-85.77
		h-85.77V-159.33z"/>
	<path d="M160.6-104.44c-27.45-17.15-37.74-54.89-27.45-85.77c17.15-44.6,75.48-54.89,291.61-54.89
		c281.32,0,380.81,41.17,312.2,126.94C692.36-66.7,239.5-56.41,160.6-104.44z"/>
	<path d="M1773.05-118.16c-72.05-89.2,37.74-130.37,329.35-120.08c240.15,10.29,267.6,17.15,267.6,78.91s-27.45,68.61-277.89,78.91
		C1886.26-73.56,1803.93-83.85,1773.05-118.16z"/>
	<path d="M510.53-430.36C253.23-553.87,194.91-605.33,253.23-663.65c48.03-48.03,555.78,188.69,555.78,260.74
		C809.01-310.28,754.12-313.71,510.53-430.36z"/>
	<path d="M1701-399.48c0-75.48,504.32-315.63,555.78-264.17c54.89,54.89,6.86,102.92-212.71,212.71
		C1817.65-337.73,1701-320.58,1701-399.48z"/>
</g>
</svg>
