<?xml version="1.0" encoding="utf-8"?>
<!-- Generator: Adobe Illustrator 25.2.1, SVG Export Plug-In . SVG Version: 6.00 Build 0)  -->
<svg version="1.1" id="图层_1" xmlns="http://www.w3.org/2000/svg" xmlns:xlink="http://www.w3.org/1999/xlink" x="0px" y="0px"
	 viewBox="0 0 250 125" style="enable-background:new 0 0 250 125;" xml:space="preserve">
<g transform="translate(0.000000,44.000000) scale(0.100000,-0.100000)">
	<path d="M200,312.57c-39.39-60.87,14.32-103.84,257.81-214.84C729.94-24.01,801.55-34.75,783.65,51.19
		c-7.16,35.81-114.58,114.58-243.48,179.03C285.94,355.54,232.23,366.28,200,312.57z"/>
	<path d="M1972.42,230.22C1746.84,115.64,1643-13.27,1782.65-6.1c111,3.58,529.94,225.58,529.94,282.87
		C2312.58,362.7,2219.48,351.96,1972.42,230.22z"/>
	<path d="M898.23-188.72V-654.2h89.52c85.94,0,89.52,10.74,89.52,200.52c0,186.19,7.16,196.94,78.77,186.19
		c46.55-7.16,139.65-89.52,222-196.94c100.26-136.06,164.71-189.77,222-189.77c114.58,0,107.42,50.13-35.81,250.64l-121.74,171.87
		l85.94,35.81c175.45,82.35,136.06,386.71-57.29,440.42c-50.13,14.32-196.94,25.06-329.42,28.65l-243.48,3.58V-188.72z
		 M1449.65,40.44c35.81-96.68-46.55-157.55-214.84-157.55c-150.39,0-157.55,3.58-157.55,107.42s3.58,107.42,175.45,107.42
		C1381.61,97.73,1435.32,83.41,1449.65,40.44z"/>
	<path d="M92.58-152.91c-50.13-82.35,46.55-111,343.74-100.26c239.9,7.16,300.77,21.48,300.77,64.45s-64.45,57.29-311.52,64.45
		C225.07-117.1,106.9-127.85,92.58-152.91z"/>
	<path d="M1775.48-152.91c-50.13-82.35,46.55-111,343.74-100.26c239.9,7.16,300.77,21.48,300.77,64.45s-64.45,57.29-311.52,64.45
		C1907.97-117.1,1789.81-127.85,1775.48-152.91z"/>
	<path d="M436.32-485.91C200-600.49,135.55-672.1,228.65-711.49c75.19-28.65,540.68,207.68,555,282.87
		C801.55-339.1,701.29-353.43,436.32-485.91z"/>
	<path d="M1728.94-428.62c14.32-75.19,479.81-311.52,555-282.87c93.1,39.39,28.65,111-207.68,225.58
		C1811.29-353.43,1711.03-339.1,1728.94-428.62z"/>
</g>
</svg>
