<?xml version="1.0" encoding="utf-8"?>
<!-- Generator: Adobe Illustrator 25.2.1, SVG Export Plug-In . SVG Version: 6.00 Build 0)  -->
<svg version="1.1" id="图层_1" xmlns="http://www.w3.org/2000/svg" xmlns:xlink="http://www.w3.org/1999/xlink" x="0px" y="0px"
	 viewBox="0 0 250 250" style="enable-background:new 0 0 250 250;" xml:space="preserve">
<g transform="translate(0.000000,62.000000) scale(0.100000,-0.100000)">
	<path d="M879.41,152.14c-158.04-383.81-152.4-428.97,50.8-457.19c124.18-16.93,186.26,5.64,242.71,84.66
		c67.73,101.6,90.31,62.09,282.22-440.26c237.06-620.88,248.35-705.54,112.89-705.54c-90.31,0-270.93-270.93-220.13-321.73
		c11.29-11.29,237.06-16.93,502.35-5.64l479.77,16.93L1901.03-621.13L1466.42,440H1235C1009.23,440,997.94,434.36,879.41,152.14z"/>
	<path d="M309.33-575.98c-253.99-253.99-50.8-558.79,434.61-649.1c141.11-22.58,186.26-62.09,174.97-129.82
		c-22.58-124.18-287.86-152.4-383.81-45.15c-73.38,90.31-395.1,124.18-395.1,45.15c0-90.31,231.42-293.51,372.53-327.37
		c197.55-50.8,524.92,11.29,649.1,124.18s141.11,378.17,28.22,468.48c-45.15,33.87-214.48,107.24-378.17,163.69
		c-169.33,50.8-299.15,124.18-293.51,152.4c16.93,79.02,299.15,107.24,372.53,33.87c90.31-90.31,321.73-79.02,321.73,16.93
		C1212.42-468.74,523.81-361.49,309.33-575.98z"/>
</g>
</svg>
